<svg width="58" height="60" viewBox="0 0 58 60" fill="none" xmlns="http://www.w3.org/2000/svg">
<g filter="url(#filter0_dd_397_3323)">
<rect x="5" y="4" width="48" height="48" rx="24" fill="white"/>
<path d="M21.4346 33.2575L21.4196 33.2725C21.2171 32.83 21.0896 32.3275 21.0371 31.7725C21.0896 32.32 21.2321 32.815 21.4346 33.2575Z" fill="#504F54"/>
<path d="M26.2498 26.7848C27.2357 26.7848 28.0348 25.9857 28.0348 24.9998C28.0348 24.014 27.2357 23.2148 26.2498 23.2148C25.264 23.2148 24.4648 24.014 24.4648 24.9998C24.4648 25.9857 25.264 26.7848 26.2498 26.7848Z" fill="#504F54"/>
<path d="M31.6425 20.5H25.3575C22.6275 20.5 21 22.1275 21 24.8575V31.1425C21 31.96 21.1425 32.6725 21.42 33.2725C22.065 34.6975 23.445 35.5 25.3575 35.5H31.6425C34.3725 35.5 36 33.8725 36 31.1425V29.425V24.8575C36 22.1275 34.3725 20.5 31.6425 20.5ZM34.7775 28.375C34.1925 27.8725 33.2475 27.8725 32.6625 28.375L29.5425 31.0525C28.9575 31.555 28.0125 31.555 27.4275 31.0525L27.1725 30.8425C26.64 30.3775 25.7925 30.3325 25.1925 30.7375L22.3875 32.62C22.2225 32.2 22.125 31.7125 22.125 31.1425V24.8575C22.125 22.7425 23.2425 21.625 25.3575 21.625H31.6425C33.7575 21.625 34.875 22.7425 34.875 24.8575V28.4575L34.7775 28.375Z" fill="#504F54"/>
<rect x="5.5" y="4.5" width="47" height="47" rx="23.5" stroke="#EAF0FB"/>
</g>
<defs>
<filter id="filter0_dd_397_3323" x="0" y="0" width="58" height="60" filterUnits="userSpaceOnUse" color-interpolation-filters="sRGB">
<feFlood flood-opacity="0" result="BackgroundImageFix"/>
<feColorMatrix in="SourceAlpha" type="matrix" values="0 0 0 0 0 0 0 0 0 0 0 0 0 0 0 0 0 0 127 0" result="hardAlpha"/>
<feMorphology radius="5" operator="erode" in="SourceAlpha" result="effect1_dropShadow_397_3323"/>
<feOffset dy="5"/>
<feGaussianBlur stdDeviation="4"/>
<feColorMatrix type="matrix" values="0 0 0 0 0.0392157 0 0 0 0 0.0352941 0 0 0 0 0.0431373 0 0 0 0.04 0"/>
<feBlend mode="normal" in2="BackgroundImageFix" result="effect1_dropShadow_397_3323"/>
<feColorMatrix in="SourceAlpha" type="matrix" values="0 0 0 0 0 0 0 0 0 0 0 0 0 0 0 0 0 0 127 0" result="hardAlpha"/>
<feMorphology radius="1" operator="dilate" in="SourceAlpha" result="effect2_dropShadow_397_3323"/>
<feOffset dy="1"/>
<feGaussianBlur stdDeviation="2"/>
<feColorMatrix type="matrix" values="0 0 0 0 0.0392157 0 0 0 0 0.0352941 0 0 0 0 0.0431373 0 0 0 0.02 0"/>
<feBlend mode="normal" in2="effect1_dropShadow_397_3323" result="effect2_dropShadow_397_3323"/>
<feBlend mode="normal" in="SourceGraphic" in2="effect2_dropShadow_397_3323" result="shape"/>
</filter>
</defs>
</svg>
