<svg width="44" height="44" viewBox="0 0 44 44" fill="none" xmlns="http://www.w3.org/2000/svg">
<g clip-path="url(#clip0_283_2732)">
<path d="M9.42357 0H33.6064C38.811 0 43.03 4.21896 43.03 9.42357V33.6064C43.03 38.811 38.811 43.03 33.6064 43.03H9.42357C4.21896 43.03 0 38.811 0 33.6064V9.42357C0 4.21896 4.21896 0 9.42357 0Z" fill="url(#paint0_linear_283_2732)"/>
<path d="M13.7899 31.232L13.794 31.2334L12.3227 33.7816C11.7857 34.7118 10.5963 35.0305 9.66612 34.4934C8.7361 33.9564 8.41724 32.767 8.95428 31.8368L10.0381 29.9596L10.1421 29.7795C10.3279 29.5125 10.7862 29.0516 11.7032 29.1384C11.7032 29.1384 13.8609 29.3725 14.017 30.494C14.017 30.494 14.0382 30.8629 13.7899 31.232ZM34.6566 24.7238H30.0689C29.7564 24.7028 29.6201 24.5911 29.5663 24.5263L29.563 24.5204L24.652 16.0142L24.6456 16.0184L24.3511 15.5962C23.8684 14.858 23.1019 16.7459 23.1019 16.7459C22.1867 18.8497 23.2318 21.2414 23.5961 21.9643L30.4173 33.7791C30.9542 34.7091 32.1436 35.0279 33.0739 34.4907C34.004 33.9537 34.3228 32.7643 33.7856 31.8341L32.08 28.8799C32.0469 28.8082 31.9894 28.6139 32.3392 28.6131H34.6566C35.7307 28.6131 36.6014 27.7424 36.6014 26.6683C36.6014 25.5943 35.7307 24.7238 34.6566 24.7238ZM25.7457 27.3674C25.7457 27.3674 25.9906 28.6131 25.0431 28.6131H8.08343C7.00936 28.6131 6.13867 27.7424 6.13867 26.6683C6.13867 25.5943 7.00936 24.7236 8.08343 24.7236H12.4436C13.1475 24.6829 13.3143 24.2765 13.3143 24.2765L13.3183 24.2785L19.0097 14.4206L19.008 14.4203C19.1117 14.2298 19.0253 14.0498 19.0104 14.0214L17.1307 10.7657C16.5936 9.83572 16.9123 8.64617 17.8425 8.10931C18.7727 7.57227 19.9621 7.8908 20.4991 8.82098L21.3708 10.3309L22.241 8.82367C22.778 7.89365 23.9674 7.5748 24.8976 8.112C25.8278 8.64903 26.1464 9.83824 25.6094 10.7684L17.6895 24.4859C17.6549 24.5695 17.6443 24.7006 17.902 24.7236H22.636L22.637 24.7698C22.637 24.7698 25.3731 24.8123 25.7457 27.3674Z" fill="white"/>
</g>
<defs>
<linearGradient id="paint0_linear_283_2732" x1="2151.5" y1="0" x2="2151.5" y2="4303" gradientUnits="userSpaceOnUse">
<stop stop-color="#17C9FB"/>
<stop offset="1" stop-color="#1A74E8"/>
</linearGradient>
<clipPath id="clip0_283_2732">
<rect width="43.03" height="43.03" fill="white"/>
</clipPath>
</defs>
</svg>
