<svg width="27" height="27" viewBox="0 0 27 27" fill="none" xmlns="http://www.w3.org/2000/svg">
<path d="M13.7273 26.5454C17.2474 26.5454 20.6234 25.147 23.1125 22.6579C25.6016 20.1688 27 16.7928 27 13.2727C27 9.75254 25.6016 6.37657 23.1125 3.88745C20.6234 1.39833 17.2474 -4.3869e-05 13.7273 -4.3869e-05C10.2071 -4.3869e-05 6.83116 1.39833 4.34204 3.88745C1.85292 6.37657 0.454546 9.75254 0.454546 13.2727C0.454546 16.7928 1.85292 20.1688 4.34204 22.6579C6.83116 25.147 10.2071 26.5454 13.7273 26.5454ZM7.92045 14.1022C7.70045 14.1022 7.48945 14.0148 7.33388 13.8593C7.17831 13.7037 7.09091 13.4927 7.09091 13.2727C7.09091 13.0527 7.17831 12.8417 7.33388 12.6861C7.48945 12.5305 7.70045 12.4431 7.92045 12.4431H17.5316L13.9695 8.88273C13.8924 8.8056 13.8312 8.71404 13.7894 8.61327C13.7477 8.51249 13.7262 8.40449 13.7262 8.29541C13.7262 8.18633 13.7477 8.07833 13.7894 7.97756C13.8312 7.87678 13.8924 7.78522 13.9695 7.70809C14.0466 7.63096 14.1382 7.56978 14.239 7.52804C14.3397 7.4863 14.4477 7.46482 14.5568 7.46482C14.6659 7.46482 14.7739 7.4863 14.8747 7.52804C14.9754 7.56978 15.067 7.63096 15.1441 7.70809L20.1214 12.6854C20.1987 12.7624 20.26 12.854 20.3018 12.9547C20.3436 13.0555 20.3651 13.1636 20.3651 13.2727C20.3651 13.3818 20.3436 13.4898 20.3018 13.5906C20.26 13.6914 20.1987 13.7829 20.1214 13.86L15.1441 18.8373C14.9884 18.993 14.7771 19.0805 14.5568 19.0805C14.3365 19.0805 14.1253 18.993 13.9695 18.8373C13.8137 18.6815 13.7262 18.4702 13.7262 18.25C13.7262 18.0297 13.8137 17.8184 13.9695 17.6626L17.5316 14.1022H7.92045Z" fill="white"/>
</svg>
