<svg width="27" height="27" viewBox="0 0 27 27" fill="none" xmlns="http://www.w3.org/2000/svg">
<g clip-path="url(#clip0_552_3211)">
<path d="M13.2727 0C9.75258 0 6.37661 1.39837 3.88749 3.88749C1.39837 6.37661 0 9.75258 0 13.2727C0 16.7929 1.39837 20.1688 3.88749 22.658C6.37661 25.1471 9.75258 26.5455 13.2727 26.5455C16.7929 26.5455 20.1688 25.1471 22.658 22.658C25.1471 20.1688 26.5455 16.7929 26.5455 13.2727C26.5455 9.75258 25.1471 6.37661 22.658 3.88749C20.1688 1.39837 16.7929 0 13.2727 0ZM19.0795 12.4432C19.2996 12.4432 19.5106 12.5306 19.6661 12.6861C19.8217 12.8417 19.9091 13.0527 19.9091 13.2727C19.9091 13.4927 19.8217 13.7037 19.6661 13.8593C19.5106 14.0149 19.2996 14.1023 19.0795 14.1023H9.46843L13.0305 17.6627C13.1076 17.7398 13.1688 17.8314 13.2106 17.9321C13.2523 18.0329 13.2738 18.1409 13.2738 18.25C13.2738 18.3591 13.2523 18.4671 13.2106 18.5679C13.1688 18.6686 13.1076 18.7602 13.0305 18.8373C12.9534 18.9144 12.8618 18.9756 12.761 19.0174C12.6603 19.0591 12.5523 19.0806 12.4432 19.0806C12.3341 19.0806 12.2261 19.0591 12.1253 19.0174C12.0246 18.9756 11.933 18.9144 11.8559 18.8373L6.87859 13.86C6.80134 13.783 6.74005 13.6914 6.69823 13.5907C6.65641 13.4899 6.63488 13.3818 6.63488 13.2727C6.63488 13.1636 6.65641 13.0556 6.69823 12.9548C6.74005 12.854 6.80134 12.7625 6.87859 12.6854L11.8559 7.70814C12.0116 7.55237 12.2229 7.46486 12.4432 7.46486C12.6635 7.46486 12.8747 7.55237 13.0305 7.70814C13.1863 7.8639 13.2738 8.07517 13.2738 8.29545C13.2738 8.51574 13.1863 8.72701 13.0305 8.88277L9.46843 12.4432H19.0795Z" fill="#333333"/>
</g>
<defs>
<clipPath id="clip0_552_3211">
<rect width="26.5455" height="26.5455" fill="white"/>
</clipPath>
</defs>
</svg>
