<svg width="36" height="36" viewBox="0 0 36 36" fill="none" xmlns="http://www.w3.org/2000/svg">
<path fill-rule="evenodd" clip-rule="evenodd" d="M4.56003 3.43803C4.27837 3.33917 3.96898 3.35625 3.69991 3.48551C3.43084 3.61477 3.22414 3.84562 3.12528 4.12728C3.02642 4.40894 3.0435 4.71833 3.17276 4.9874C3.30202 5.25647 3.53287 5.46317 3.81453 5.56203L4.20603 5.69853C5.20803 6.05103 5.86653 6.28353 6.35103 6.52203C6.80553 6.74553 7.00503 6.92703 7.13703 7.11903C7.27203 7.31703 7.37703 7.59003 7.43703 8.13453C7.49704 8.70453 7.50003 9.44703 7.50003 10.557V14.46C7.50003 18.873 7.59453 20.328 8.89503 21.699C10.194 23.07 12.285 23.07 16.47 23.07H24.423C26.7645 23.07 27.936 23.07 28.7625 22.395C29.5905 21.72 29.8275 20.574 30.3 18.282L31.05 14.6445C31.5705 12.0345 31.83 10.731 31.164 9.86553C30.498 9.00003 28.224 9.00003 25.6965 9.00003H9.73803C9.73165 8.6303 9.71013 8.26099 9.67353 7.89303C9.59253 7.14753 9.41853 6.46803 8.99553 5.85003C8.56953 5.22603 8.00253 4.82703 7.34103 4.50153C6.72303 4.19853 5.93703 3.92253 5.01303 3.59703L4.56003 3.43803ZM23.2755 12.6855C23.7255 13.1145 23.7435 13.8255 23.3145 14.2755L19.029 18.7755C18.924 18.8858 18.7976 18.9736 18.6576 19.0336C18.5176 19.0936 18.3669 19.1245 18.2145 19.1245C18.0622 19.1245 17.9115 19.0936 17.7715 19.0336C17.6315 18.9736 17.5051 18.8858 17.4 18.7755L15.6855 16.9755C15.5793 16.8695 15.4953 16.7432 15.4386 16.6042C15.3819 16.4651 15.3537 16.3162 15.3554 16.166C15.3572 16.0159 15.389 15.8677 15.449 15.73C15.509 15.5924 15.5959 15.4681 15.7046 15.3646C15.8133 15.2611 15.9417 15.1804 16.0821 15.1272C16.2225 15.0741 16.3722 15.0496 16.5222 15.0551C16.6722 15.0607 16.8196 15.0963 16.9557 15.1597C17.0918 15.2232 17.2138 15.3132 17.3145 15.4245L18.2145 16.3695L21.6855 12.7245C21.8913 12.5086 22.1743 12.3832 22.4725 12.3759C22.7706 12.3686 23.0595 12.4799 23.2755 12.6855Z" fill="#333333"/>
<path d="M11.25 27C11.8467 27 12.419 27.2371 12.841 27.659C13.2629 28.081 13.5 28.6533 13.5 29.25C13.5 29.8467 13.2629 30.419 12.841 30.841C12.419 31.2629 11.8467 31.5 11.25 31.5C10.6533 31.5 10.081 31.2629 9.65901 30.841C9.23705 30.419 9 29.8467 9 29.25C9 28.6533 9.23705 28.081 9.65901 27.659C10.081 27.2371 10.6533 27 11.25 27ZM24.75 27C25.3467 27 25.919 27.2371 26.341 27.659C26.7629 28.081 27 28.6533 27 29.25C27 29.8467 26.7629 30.419 26.341 30.841C25.919 31.2629 25.3467 31.5 24.75 31.5C24.1533 31.5 23.581 31.2629 23.159 30.841C22.7371 30.419 22.5 29.8467 22.5 29.25C22.5 28.6533 22.7371 28.081 23.159 27.659C23.581 27.2371 24.1533 27 24.75 27Z" fill="#333333"/>
</svg>
