<svg width="36" height="36" viewBox="0 0 36 36" fill="none" xmlns="http://www.w3.org/2000/svg">
<path fill-rule="evenodd" clip-rule="evenodd" d="M18.03 4.5C14.6423 4.5 11.5553 5.619 9.72901 6.53325C9.56401 6.61575 9.41026 6.69675 9.26701 6.77475C8.98351 6.92925 8.74201 7.07325 8.55001 7.2L10.6275 10.2585L11.6055 10.6477C15.4275 12.576 20.553 12.576 24.3758 10.6477L25.4858 10.0717L27.4508 7.2C27.0437 6.93449 26.6203 6.69477 26.1833 6.48225C24.3668 5.57775 21.354 4.5 18.03 4.5ZM13.1978 7.962C12.4621 7.82434 11.7355 7.642 11.022 7.416C12.7328 6.65625 15.2828 5.85 18.0293 5.85C19.932 5.85 21.7313 6.237 23.2193 6.7275C21.4755 6.97275 19.6148 7.389 17.8418 7.90125C16.4468 8.30475 14.8163 8.26125 13.1978 7.962ZM25.1678 11.76L24.984 11.853C20.7788 13.974 15.2018 13.974 10.9965 11.853L10.8225 11.7645C4.50601 18.6952 -0.316485 31.4978 18.03 31.4978C36.375 31.4978 31.4348 18.456 25.1678 11.76ZM17.25 18C16.8522 18 16.4707 18.158 16.1894 18.4393C15.908 18.7206 15.75 19.1022 15.75 19.5C15.75 19.8978 15.908 20.2794 16.1894 20.5607C16.4707 20.842 16.8522 21 17.25 21V18ZM18.75 16.5V15.75H17.25V16.5C16.4544 16.5 15.6913 16.8161 15.1287 17.3787C14.5661 17.9413 14.25 18.7044 14.25 19.5C14.25 20.2956 14.5661 21.0587 15.1287 21.6213C15.6913 22.1839 16.4544 22.5 17.25 22.5V25.5C16.9398 25.5001 16.6372 25.404 16.3839 25.2249C16.1306 25.0459 15.939 24.7927 15.8355 24.5002C15.7693 24.3127 15.6312 24.1591 15.4518 24.0733C15.2723 23.9875 15.0661 23.9765 14.8785 24.0427C14.6909 24.109 14.5374 24.247 14.4516 24.4265C14.3658 24.606 14.3548 24.8122 14.421 24.9998C14.6279 25.5847 15.011 26.0912 15.5177 26.4494C16.0243 26.8076 16.6295 27 17.25 27V27.75H18.75V27C19.5457 27 20.3087 26.6839 20.8713 26.1213C21.4339 25.5587 21.75 24.7956 21.75 24C21.75 23.2044 21.4339 22.4413 20.8713 21.8787C20.3087 21.3161 19.5457 21 18.75 21V18C19.4025 18 19.9583 18.4163 20.1653 18.9998C20.196 19.0952 20.2455 19.1835 20.311 19.2595C20.3764 19.3355 20.4564 19.3976 20.5463 19.4421C20.6362 19.4866 20.734 19.5127 20.8341 19.5187C20.9342 19.5247 21.0345 19.5106 21.1291 19.4772C21.2236 19.4438 21.3105 19.3918 21.3846 19.3242C21.4587 19.2566 21.5185 19.1749 21.5605 19.0838C21.6024 18.9927 21.6257 18.8941 21.6288 18.7939C21.632 18.6937 21.6151 18.5938 21.579 18.5002C21.3721 17.9153 20.989 17.4088 20.4824 17.0506C19.9757 16.6924 19.3705 16.5 18.75 16.5ZM18.75 22.5V25.5C19.1478 25.5 19.5294 25.342 19.8107 25.0607C20.092 24.7794 20.25 24.3978 20.25 24C20.25 23.6022 20.092 23.2206 19.8107 22.9393C19.5294 22.658 19.1478 22.5 18.75 22.5Z" fill="#808080"/>
</svg>
