<svg width="38" height="38" viewBox="0 0 38 38" fill="none" xmlns="http://www.w3.org/2000/svg">
<circle cx="18.6873" cy="20.3567" r="17.6429" fill="#1D1B1B"/>
<path d="M19.0001 22.8L23.5917 27.3916C23.882 27.6819 24.2514 27.827 24.7 27.827C25.1487 27.827 25.5181 27.6819 25.8084 27.3916C26.0986 27.1013 26.2438 26.7319 26.2438 26.2833C26.2438 25.8347 26.0986 25.4652 25.8084 25.175L21.2167 20.5833L25.8084 15.9916C26.0986 15.7014 26.2438 15.3319 26.2438 14.8833C26.2438 14.4347 26.0986 14.0653 25.8084 13.775C25.5181 13.4847 25.1487 13.3396 24.7 13.3396C24.2514 13.3396 23.882 13.4847 23.5917 13.775L19.0001 18.3666L14.4084 13.775C14.1181 13.4847 13.7487 13.3396 13.3001 13.3396C12.8515 13.3396 12.482 13.4847 12.1917 13.775C11.9015 14.0653 11.7563 14.4347 11.7563 14.8833C11.7563 15.3319 11.9015 15.7014 12.1917 15.9916L16.7834 20.5833L12.1917 25.175C11.9015 25.4652 11.7563 25.8347 11.7563 26.2833C11.7563 26.7319 11.9015 27.1013 12.1917 27.3916C12.482 27.6819 12.8515 27.827 13.3001 27.827C13.7487 27.827 14.1181 27.6819 14.4084 27.3916L19.0001 22.8ZM19.0001 36.4166C16.8098 36.4166 14.7515 36.0007 12.8251 35.1689C10.8987 34.3372 9.22299 33.2093 7.79799 31.7854C6.37299 30.3604 5.24513 28.6847 4.41441 26.7583C3.58369 24.8319 3.1678 22.7736 3.16675 20.5833C3.16675 18.393 3.58264 16.3347 4.41441 14.4083C5.24619 12.4819 6.37405 10.8062 7.79799 9.38124C9.22299 7.95624 10.8987 6.82839 12.8251 5.99766C14.7515 5.16694 16.8098 4.75106 19.0001 4.75C21.1903 4.75 23.2487 5.16589 25.175 5.99766C27.1014 6.82944 28.7771 7.9573 30.2021 9.38124C31.6271 10.8062 32.7555 12.4819 33.5873 14.4083C34.4191 16.3347 34.8344 18.393 34.8334 20.5833C34.8334 22.7736 34.4175 24.8319 33.5857 26.7583C32.7539 28.6847 31.6261 30.3604 30.2021 31.7854C28.7771 33.2104 27.1014 34.3388 25.175 35.1705C23.2487 36.0023 21.1903 36.4177 19.0001 36.4166Z" fill="#666666" stroke="#666666" stroke-width="1.225"/>
</svg>
