<svg width="18" height="18" viewBox="0 0 18 18" fill="none" xmlns="http://www.w3.org/2000/svg">
<path d="M4.33929 1.92871H10.9286V16.0716H4.33929C3.69993 16.0716 3.08675 15.8176 2.63466 15.3655C2.18256 14.9134 1.92857 14.3002 1.92857 13.6609V4.33943C1.92857 3.70006 2.18256 3.08689 2.63466 2.63479C3.08675 2.1827 3.69993 1.92871 4.33929 1.92871ZM11.8929 10.9287V7.07157H16.0714V10.9287H11.8929ZM11.8929 16.0716V11.893H16.0714V13.6609C16.0714 14.3002 15.8174 14.9134 15.3653 15.3655C14.9133 15.8176 14.3001 16.0716 13.6607 16.0716H11.8929ZM11.8929 1.92871V6.10728H16.0714V4.33943C16.0714 3.70006 15.8174 3.08689 15.3653 2.63479C14.9133 2.1827 14.3001 1.92871 13.6607 1.92871H11.8929ZM4.98215 4.82157C4.53857 4.82157 4.17857 5.18157 4.17857 5.62514V7.87514C4.17857 8.31871 4.53857 8.67871 4.98215 8.67871H8.19643C8.64 8.67871 9 8.31871 9 7.87514V5.62514C9 5.18157 8.64 4.82157 8.19643 4.82157H4.98215ZM5.14286 7.71443V5.78585H8.03572V7.71443H5.14286ZM4.17857 10.4466C4.17857 10.7127 4.39457 10.9287 4.66072 10.9287H8.51786C8.64573 10.9287 8.76837 10.8779 8.85879 10.7875C8.9492 10.6971 9 10.5744 9 10.4466C9 10.3187 8.9492 10.1961 8.85879 10.1056C8.76837 10.0152 8.64573 9.96443 8.51786 9.96443H4.66072C4.53284 9.96443 4.41021 10.0152 4.31979 10.1056C4.22937 10.1961 4.17857 10.3187 4.17857 10.4466ZM4.66072 12.2144C4.53284 12.2144 4.41021 12.2652 4.31979 12.3556C4.22937 12.4461 4.17857 12.5687 4.17857 12.6966C4.17857 12.8244 4.22937 12.9471 4.31979 13.0375C4.41021 13.1279 4.53284 13.1787 4.66072 13.1787H8.51786C8.64573 13.1787 8.76837 13.1279 8.85879 13.0375C8.9492 12.9471 9 12.8244 9 12.6966C9 12.5687 8.9492 12.4461 8.85879 12.3556C8.76837 12.2652 8.64573 12.2144 8.51786 12.2144H4.66072Z" fill="#808080"/>
</svg>
