<svg width="44" height="44" viewBox="0 0 44 44" fill="none" xmlns="http://www.w3.org/2000/svg">
<g clip-path="url(#clip0_400_6496)">
<path d="M32.9448 -0.000793457H10.0852C4.51528 -0.000793457 0 4.51448 0 10.0844V32.944C0 38.5139 4.51528 43.0292 10.0852 43.0292H32.9448C38.5147 43.0292 43.03 38.5139 43.03 32.944V10.0844C43.03 4.51448 38.5147 -0.000793457 32.9448 -0.000793457Z" fill="#5865F2"/>
<mask id="mask0_400_6496" style="mask-type:luminance" maskUnits="userSpaceOnUse" x="4" y="8" width="35" height="27">
<path d="M4.70605 8.57159H38.3232V34.6131H4.70605V8.57159Z" fill="white"/>
</mask>
<g mask="url(#mask0_400_6496)">
<path d="M33.1642 10.8907C30.9848 9.89019 28.6847 9.17676 26.3216 8.76824C26.3002 8.76427 26.278 8.76717 26.2582 8.77652C26.2385 8.78588 26.2222 8.80121 26.2117 8.82035C25.9162 9.34579 25.5888 10.0316 25.3597 10.5705C22.7757 10.1835 20.2052 10.1835 17.6743 10.5705C17.445 10.0195 17.1058 9.34579 16.809 8.82035C16.798 8.8016 16.7816 8.78661 16.762 8.77731C16.7423 8.76802 16.7203 8.76486 16.6989 8.76824C14.3356 9.17593 12.0354 9.88939 9.85627 10.8907C9.83762 10.8986 9.82188 10.9121 9.81123 10.9293C5.45309 17.4403 4.25935 23.7913 4.84496 30.0636C4.84659 30.0789 4.8513 30.0938 4.85881 30.1073C4.86632 30.1208 4.87647 30.1327 4.88866 30.1422C7.76394 32.2539 10.5493 33.5359 13.2829 34.3855C13.3041 34.3919 13.3268 34.3916 13.3479 34.3847C13.369 34.3778 13.3875 34.3646 13.4009 34.3469C14.0475 33.4638 14.6239 32.5327 15.1182 31.5536C15.125 31.5402 15.1289 31.5255 15.1296 31.5105C15.1303 31.4955 15.1278 31.4805 15.1223 31.4665C15.1168 31.4525 15.1084 31.4398 15.0976 31.4293C15.0869 31.4188 15.074 31.4107 15.0599 31.4056C14.1455 31.0586 13.275 30.6359 12.4376 30.1557C12.4223 30.1467 12.4095 30.1341 12.4003 30.119C12.391 30.1039 12.3857 30.0867 12.3846 30.0691C12.3836 30.0514 12.3869 30.0337 12.3943 30.0177C12.4017 30.0016 12.4129 29.9875 12.427 29.9768C12.6036 29.8448 12.7773 29.7087 12.9477 29.5687C12.9626 29.5564 12.9807 29.5484 12.9999 29.5458C13.0191 29.5432 13.0386 29.546 13.0563 29.5539C18.5581 32.0658 24.5142 32.0658 29.9509 29.5539C29.9687 29.5455 29.9885 29.5423 30.0079 29.5447C30.0274 29.5471 30.0458 29.5549 30.061 29.5674C30.2317 29.7081 30.4057 29.8447 30.5831 29.9768C30.5973 29.9874 30.6086 30.0014 30.6161 30.0174C30.6236 30.0334 30.627 30.051 30.6261 30.0687C30.6252 30.0864 30.62 30.1035 30.6108 30.1187C30.6017 30.1339 30.589 30.1466 30.5739 30.1557C29.736 30.6449 28.8583 31.0626 27.9502 31.4042C27.9361 31.4096 27.9233 31.4179 27.9126 31.4286C27.902 31.4393 27.8937 31.4521 27.8883 31.4662C27.8829 31.4803 27.8806 31.4954 27.8814 31.5104C27.8823 31.5255 27.8863 31.5402 27.8932 31.5536C28.3961 32.525 28.9696 33.4581 29.6091 34.3455C29.6221 34.3637 29.6405 34.3773 29.6616 34.3845C29.6828 34.3917 29.7057 34.3921 29.7271 34.3855C32.4739 33.5359 35.2593 32.2539 38.1347 30.1422C38.147 30.1331 38.1573 30.1216 38.1648 30.1082C38.1724 30.0949 38.177 30.0801 38.1784 30.0649C38.8793 22.8135 37.0043 16.5145 33.2079 10.9307C33.1986 10.9125 33.1831 10.8983 33.1642 10.8907ZM15.9398 26.2445C14.2833 26.2445 12.9185 24.7238 12.9185 22.8562C12.9185 20.9886 14.2569 19.4679 15.9398 19.4679C17.6358 19.4679 18.9874 21.002 18.9608 22.8562C18.9608 24.7238 17.6227 26.2445 15.9398 26.2445ZM27.1101 26.2445C25.4536 26.2445 24.0889 24.7238 24.0889 22.8562C24.0889 20.9886 25.4272 19.4679 27.1101 19.4679C28.8061 19.4679 30.1577 21.002 30.1313 22.8562C30.1313 24.7238 28.8061 26.2445 27.1101 26.2445Z" fill="white"/>
</g>
</g>
<defs>
<clipPath id="clip0_400_6496">
<rect width="43.03" height="43.03" fill="white" transform="translate(0 -0.000793457)"/>
</clipPath>
</defs>
</svg>
