<svg width="28" height="28" viewBox="0 0 28 28" fill="none" xmlns="http://www.w3.org/2000/svg">
<path d="M14 17.4708C13.8445 17.4708 13.6936 17.4417 13.5473 17.3833C13.4011 17.325 13.2798 17.2472 13.1833 17.15L7.81668 11.7833C7.60279 11.5694 7.49585 11.2972 7.49585 10.9667C7.49585 10.6361 7.60279 10.3639 7.81668 10.15C8.03057 9.93611 8.30279 9.82917 8.63335 9.82917C8.9639 9.82917 9.23613 9.93611 9.45002 10.15L14 14.7L18.55 10.15C18.7639 9.93611 19.0361 9.82917 19.3667 9.82917C19.6972 9.82917 19.9695 9.93611 20.1833 10.15C20.3972 10.3639 20.5042 10.6361 20.5042 10.9667C20.5042 11.2972 20.3972 11.5694 20.1833 11.7833L14.8167 17.15C14.7 17.2667 14.5736 17.3495 14.4375 17.3985C14.3014 17.4475 14.1556 17.4716 14 17.4708Z" fill="#808080"/>
</svg>
