<svg width="60" height="60" viewBox="0 0 60 60" fill="none" xmlns="http://www.w3.org/2000/svg">
<path d="M30 42.5C30.7083 42.5 31.3025 42.26 31.7825 41.78C32.2625 41.3 32.5017 40.7067 32.5 40C32.5 39.2917 32.26 38.6975 31.78 38.2175C31.3 37.7375 30.7067 37.4983 30 37.5C29.2917 37.5 28.6975 37.74 28.2175 38.22C27.7375 38.7 27.4983 39.2933 27.5 40C27.5 40.7083 27.74 41.3025 28.22 41.7825C28.7 42.2625 29.2933 42.5017 30 42.5ZM30 32.5C30.7083 32.5 31.3025 32.26 31.7825 31.78C32.2625 31.3 32.5017 30.7067 32.5 30V20C32.5 19.2917 32.26 18.6975 31.78 18.2175C31.3 17.7375 30.7067 17.4983 30 17.5C29.2917 17.5 28.6975 17.74 28.2175 18.22C27.7375 18.7 27.4983 19.2933 27.5 20V30C27.5 30.7083 27.74 31.3025 28.22 31.7825C28.7 32.2625 29.2933 32.5017 30 32.5ZM30 55C26.5417 55 23.2917 54.3433 20.25 53.03C17.2083 51.7167 14.5625 49.9358 12.3125 47.6875C10.0625 45.4375 8.28167 42.7917 6.97 39.75C5.65833 36.7083 5.00167 33.4583 5 30C5 26.5417 5.65667 23.2917 6.97 20.25C8.28333 17.2083 10.0642 14.5625 12.3125 12.3125C14.5625 10.0625 17.2083 8.28167 20.25 6.97C23.2917 5.65833 26.5417 5.00167 30 5C33.4583 5 36.7083 5.65667 39.75 6.97C42.7917 8.28333 45.4375 10.0642 47.6875 12.3125C49.9375 14.5625 51.7192 17.2083 53.0325 20.25C54.3458 23.2917 55.0017 26.5417 55 30C55 33.4583 54.3433 36.7083 53.03 39.75C51.7167 42.7917 49.9358 45.4375 47.6875 47.6875C45.4375 49.9375 42.7917 51.7192 39.75 53.0325C36.7083 54.3458 33.4583 55.0017 30 55Z" fill="#F13A5B"/>
</svg>
