<svg width="22" height="22" viewBox="0 0 22 22" fill="none" xmlns="http://www.w3.org/2000/svg">
<path d="M15.125 5.5H12.375C11.8687 5.5 11.4583 5.91041 11.4583 6.41667V9.16667H15.125C15.2292 9.16436 15.3281 9.21287 15.3901 9.29674C15.452 9.38062 15.4694 9.48933 15.4366 9.58833L14.7583 11.605C14.6958 11.7901 14.5228 11.9152 14.3275 11.9167H11.4583V18.7917C11.4583 19.0448 11.2531 19.25 11 19.25H8.70829C8.45516 19.25 8.24996 19.0448 8.24996 18.7917V11.9167H6.87496C6.62183 11.9167 6.41663 11.7114 6.41663 11.4583V9.625C6.41663 9.37191 6.62183 9.16667 6.87496 9.16667H8.24996V6.41667C8.24996 4.39162 9.89162 2.75 11.9166 2.75H15.125C15.3781 2.75 15.5833 2.9552 15.5833 3.20833V5.04167C15.5833 5.2948 15.3781 5.5 15.125 5.5Z" fill="white"/>
</svg>
