<svg width="22" height="22" viewBox="0 0 22 22" fill="none" xmlns="http://www.w3.org/2000/svg">
<path fill-rule="evenodd" clip-rule="evenodd" d="M14.6667 2.75H7.33333C4.80203 2.75 2.75 4.80203 2.75 7.33333V14.6667C2.75 17.198 4.80203 19.25 7.33333 19.25H14.6667C17.198 19.25 19.25 17.198 19.25 14.6667V7.33333C19.25 4.80203 17.198 2.75 14.6667 2.75ZM17.6458 14.6667C17.6408 16.3099 16.3099 17.6408 14.6667 17.6458H7.33333C5.69007 17.6408 4.3592 16.3099 4.35417 14.6667V7.33333C4.3592 5.69007 5.69007 4.3592 7.33333 4.35417H14.6667C16.3099 4.3592 17.6408 5.69007 17.6458 7.33333V14.6667ZM15.3542 7.5625C15.8604 7.5625 16.2708 7.15209 16.2708 6.64583C16.2708 6.13958 15.8604 5.72917 15.3542 5.72917C14.8479 5.72917 14.4375 6.13958 14.4375 6.64583C14.4375 7.15209 14.8479 7.5625 15.3542 7.5625ZM11 6.875C8.72183 6.875 6.875 8.72183 6.875 11C6.875 13.2782 8.72183 15.125 11 15.125C13.2782 15.125 15.125 13.2782 15.125 11C15.1275 9.90523 14.6936 8.85461 13.9195 8.08049C13.1454 7.30637 12.0948 6.87256 11 6.875ZM8.47917 11C8.47917 12.3922 9.60777 13.5208 11 13.5208C12.3922 13.5208 13.5208 12.3922 13.5208 11C13.5208 9.60777 12.3922 8.47917 11 8.47917C9.60777 8.47917 8.47917 9.60777 8.47917 11Z" fill="white"/>
</svg>
