<svg width="44" height="44" viewBox="0 0 44 44" fill="none" xmlns="http://www.w3.org/2000/svg">
<g clip-path="url(#clip0_136_2973)">
<path d="M33.5802 0.645142H10.7208C5.15096 0.645142 0.635742 5.16036 0.635742 10.7302V33.5896C0.635742 39.1594 5.15096 43.6746 10.7208 43.6746H33.5802C39.15 43.6746 43.6652 39.1594 43.6652 33.5896V10.7302C43.6652 5.16036 39.15 0.645142 33.5802 0.645142Z" fill="url(#paint0_radial_136_2973)"/>
<path d="M33.5802 0.645142H10.7208C5.15096 0.645142 0.635742 5.16036 0.635742 10.7302V33.5896C0.635742 39.1594 5.15096 43.6746 10.7208 43.6746H33.5802C39.15 43.6746 43.6652 39.1594 43.6652 33.5896V10.7302C43.6652 5.16036 39.15 0.645142 33.5802 0.645142Z" fill="url(#paint1_radial_136_2973)"/>
<path d="M22.1517 5.3515C17.5869 5.3515 17.0139 5.3715 15.2211 5.45302C13.4317 5.53505 12.2102 5.81827 11.1415 6.23394C10.0359 6.66323 9.09813 7.23757 8.16392 8.17212C7.22887 9.10649 6.65453 10.0442 6.2239 11.1494C5.80705 12.2184 5.5235 13.4404 5.44298 15.2289C5.36281 17.0219 5.3418 17.5951 5.3418 22.1601C5.3418 26.725 5.36197 27.2962 5.44332 29.089C5.52568 30.8784 5.8089 32.0999 6.22424 33.1685C6.65386 34.2742 7.2282 35.2119 8.16275 36.1461C9.09679 37.0812 10.0345 37.6569 11.1393 38.0862C12.2089 38.5018 13.4305 38.785 15.2196 38.8671C17.0125 38.9486 17.585 38.9686 22.1497 38.9686C26.715 38.9686 27.2861 38.9486 29.0789 38.8671C30.8683 38.785 32.0912 38.5018 33.1607 38.0862C34.2658 37.6569 35.2022 37.0812 36.1361 36.1461C37.0711 35.2119 37.6453 34.2742 38.0761 33.169C38.4893 32.0999 38.773 30.8781 38.857 29.0893C38.9375 27.2965 38.9586 26.725 38.9586 22.1601C38.9586 17.5951 38.9375 17.0222 38.857 15.2293C38.773 13.4399 38.4893 12.2186 38.0761 11.1499C37.6453 10.0442 37.0711 9.10649 36.1361 8.17212C35.2012 7.23723 34.2662 6.66289 33.1597 6.23411C32.0881 5.81827 30.866 5.53488 29.0766 5.45302C27.2836 5.3715 26.7128 5.3515 22.1465 5.3515H22.1517ZM20.6438 8.38054C21.0914 8.37987 21.5908 8.38054 22.1517 8.38054C26.6397 8.38054 27.1715 8.39668 28.9438 8.47719C30.5826 8.55215 31.4721 8.82596 32.0646 9.05607C32.849 9.36064 33.4083 9.72487 33.9962 10.3133C34.5845 10.9016 34.9486 11.4619 35.254 12.2463C35.4841 12.838 35.7582 13.7275 35.8329 15.3663C35.9134 17.1382 35.9309 17.6704 35.9309 22.1562C35.9309 26.642 35.9134 27.1743 35.8329 28.9461C35.7579 30.5849 35.4841 31.4744 35.254 32.0662C34.9494 32.8507 34.5845 33.4092 33.9962 33.9972C33.4079 34.5855 32.8494 34.9495 32.0646 35.2543C31.4728 35.4854 30.5826 35.7585 28.9438 35.8335C27.1718 35.914 26.6397 35.9315 22.1517 35.9315C17.6635 35.9315 17.1315 35.914 15.3598 35.8335C13.7209 35.7579 12.8314 35.4841 12.2384 35.2539C11.4542 34.9492 10.8938 34.5851 10.3055 33.9968C9.71719 33.4086 9.35312 32.8497 9.04771 32.0649C8.8176 31.4731 8.54346 30.5836 8.46883 28.9448C8.38832 27.1728 8.37218 26.6407 8.37218 22.152C8.37218 17.6635 8.38832 17.134 8.46883 15.3621C8.54379 13.7233 8.8176 12.8338 9.04771 12.2413C9.35244 11.4568 9.71719 10.8966 10.3056 10.3083C10.8939 9.72 11.4542 9.35576 12.2386 9.05052C12.8311 8.81941 13.7209 8.54627 15.3598 8.47097C16.9103 8.40088 17.5112 8.37987 20.6438 8.37634V8.38054ZM31.124 11.1714C30.0104 11.1714 29.107 12.074 29.107 13.1877C29.107 14.3013 30.0104 15.2047 31.124 15.2047C32.2376 15.2047 33.141 14.3013 33.141 13.1877C33.141 12.0742 32.2376 11.1707 31.124 11.1707V11.1714ZM22.1517 13.5281C17.3848 13.5281 13.5199 17.393 13.5199 22.1601C13.5199 26.9271 17.3848 30.7901 22.1517 30.7901C26.9187 30.7901 30.7823 26.9271 30.7823 22.1601C30.7823 17.3932 26.9184 13.5281 22.1514 13.5281H22.1517ZM22.1517 16.5571C25.2459 16.5571 27.7546 19.0655 27.7546 22.1601C27.7546 25.2543 25.2459 27.763 22.1517 27.763C19.0573 27.763 16.549 25.2543 16.549 22.1601C16.549 19.0655 19.0573 16.5571 22.1517 16.5571Z" fill="white"/>
</g>
<defs>
<radialGradient id="paint0_radial_136_2973" cx="0" cy="0" r="1" gradientUnits="userSpaceOnUse" gradientTransform="translate(12.0654 46.9887) rotate(-90) scale(42.6454 39.6636)">
<stop stop-color="#FFDD55"/>
<stop offset="0.1" stop-color="#FFDD55"/>
<stop offset="0.5" stop-color="#FF543E"/>
<stop offset="1" stop-color="#C837AB"/>
</radialGradient>
<radialGradient id="paint1_radial_136_2973" cx="0" cy="0" r="1" gradientUnits="userSpaceOnUse" gradientTransform="translate(-6.57186 3.74477) rotate(78.681) scale(19.0627 78.5772)">
<stop stop-color="#3771C8"/>
<stop offset="0.128" stop-color="#3771C8"/>
<stop offset="1" stop-color="#6600FF" stop-opacity="0"/>
</radialGradient>
<clipPath id="clip0_136_2973">
<rect width="43.0295" height="43.0295" fill="white" transform="translate(0.635742 0.645142)"/>
</clipPath>
</defs>
</svg>
