<svg width="22" height="22" viewBox="0 0 22 22" fill="none" xmlns="http://www.w3.org/2000/svg">
<path fill-rule="evenodd" clip-rule="evenodd" d="M4.58333 2.75H17.4167C18.4292 2.75 19.25 3.57081 19.25 4.58333V17.4167C19.25 18.4292 18.4292 19.25 17.4167 19.25H4.58333C3.57081 19.25 2.75 18.4292 2.75 17.4167V4.58333C2.75 3.57081 3.57081 2.75 4.58333 2.75ZM7.33333 16.5C7.58646 16.5 7.79167 16.2948 7.79167 16.0417V9.625C7.79167 9.37191 7.58646 9.16667 7.33333 9.16667H5.95833C5.7052 9.16667 5.5 9.37191 5.5 9.625V16.0417C5.5 16.2948 5.7052 16.5 5.95833 16.5H7.33333ZM6.64583 8.25C5.88644 8.25 5.27083 7.63439 5.27083 6.875C5.27083 6.11561 5.88644 5.5 6.64583 5.5C7.40523 5.5 8.02083 6.11561 8.02083 6.875C8.02083 7.63439 7.40523 8.25 6.64583 8.25ZM16.0417 16.5C16.2948 16.5 16.5 16.2948 16.5 16.0417V11.825C16.5298 10.3682 15.4528 9.12498 14.0067 8.94667C12.9956 8.85431 12.0159 9.32653 11.4583 10.175V9.625C11.4583 9.37191 11.2531 9.16667 11 9.16667H9.625C9.37191 9.16667 9.16667 9.37191 9.16667 9.625V16.0417C9.16667 16.2948 9.37191 16.5 9.625 16.5H11C11.2531 16.5 11.4583 16.2948 11.4583 16.0417V12.6042C11.4583 11.8448 12.074 11.2292 12.8333 11.2292C13.5927 11.2292 14.2083 11.8448 14.2083 12.6042V16.0417C14.2083 16.2948 14.4136 16.5 14.6667 16.5H16.0417Z" fill="white"/>
</svg>
