<svg width="20" height="20" viewBox="0 0 20 20" fill="none" xmlns="http://www.w3.org/2000/svg">
<path d="M18.3332 7.17334V13.9583C18.3332 14.6501 18.0685 15.3157 17.5934 15.8185C17.1183 16.3214 16.4688 16.6233 15.7782 16.6625L15.6248 16.6667H4.37484C3.68306 16.6667 3.01748 16.402 2.51464 15.9269C2.01181 15.4519 1.70984 14.8023 1.67067 14.1117L1.6665 13.9583V7.17334L9.70984 11.3867C9.79932 11.4335 9.89882 11.458 9.99984 11.458C10.1008 11.458 10.2004 11.4335 10.2898 11.3867L18.3332 7.17334ZM4.37484 3.33334H15.6248C16.2962 3.33326 16.9436 3.58251 17.4415 4.03273C17.9395 4.48296 18.2525 5.10208 18.3198 5.77001L9.99984 10.1283L1.67984 5.77001C1.74444 5.1286 2.03571 4.53127 2.5013 4.0854C2.96688 3.63952 3.57624 3.37433 4.21984 3.33751L4.37484 3.33334Z" fill="#4C4C4C"/>
</svg>
