<svg width="18" height="18" viewBox="0 0 18 18" fill="none" xmlns="http://www.w3.org/2000/svg">
<path d="M10.9983 1.74785C11.1317 1.68117 11.2861 1.67018 11.4275 1.71729C11.569 1.7644 11.686 1.86577 11.7528 1.9991L13.4035 5.3006C14.4183 5.3786 15.055 5.5781 15.466 6.08585C15.793 6.4901 15.898 6.9926 15.8598 7.68785H2.13929C2.10104 6.9926 2.20679 6.4901 2.53304 6.08585C2.94404 5.57735 3.58079 5.3786 4.59554 5.3006L6.24629 1.9991C6.31362 1.86683 6.4305 1.76652 6.57146 1.72005C6.71243 1.67358 6.86604 1.6847 6.99884 1.751C7.13164 1.8173 7.23285 1.9334 7.28041 2.074C7.32798 2.2146 7.31805 2.3683 7.25279 2.5016L5.87654 5.2541C6.23879 5.25035 6.63404 5.25035 7.06604 5.25035H10.933C11.365 5.25035 11.7603 5.25035 12.1225 5.2541L10.7463 2.5016C10.6797 2.36813 10.6688 2.21366 10.716 2.07217C10.7633 1.93067 10.8648 1.81449 10.9983 1.74785Z" fill="#808080"/>
<path fill-rule="evenodd" clip-rule="evenodd" d="M2.66579 10.6927C2.52744 10.0683 2.39992 9.44141 2.28329 8.8125H15.7158C15.5991 9.44139 15.4715 10.0682 15.3333 10.6927L15.0115 12.1927C14.6463 13.8975 14.464 14.7495 13.8453 15.2498C13.2265 15.75 12.355 15.75 10.612 15.75H7.38704C5.64404 15.75 4.77254 15.75 4.15454 15.2498C3.53504 14.7495 3.35204 13.8975 2.98754 12.1927L2.66579 10.6927ZM7.49954 9.9375C7.35035 9.9375 7.20728 9.99676 7.10179 10.1023C6.9963 10.2077 6.93704 10.3508 6.93704 10.5C6.93704 10.6492 6.9963 10.7923 7.10179 10.8977C7.20728 11.0032 7.35035 11.0625 7.49954 11.0625H10.4995C10.6487 11.0625 10.7918 11.0032 10.8973 10.8977C11.0028 10.7923 11.062 10.6492 11.062 10.5C11.062 10.3508 11.0028 10.2077 10.8973 10.1023C10.7918 9.99676 10.6487 9.9375 10.4995 9.9375H7.49954Z" fill="#808080"/>
</svg>
