<svg width="36" height="37" viewBox="0 0 36 37" fill="none" xmlns="http://www.w3.org/2000/svg">
<path d="M9.39 32.4939H9C7.5855 32.4939 6.879 32.4939 6.4395 32.0519C6 31.6114 6 30.9008 6 29.4782V27.8007C6 27.0193 6 26.6286 6.1995 26.2786C6.399 25.9301 6.7005 25.7536 7.3035 25.4006C11.2725 23.0789 16.9065 21.7725 20.6685 24.0278C20.9205 24.1801 21.1485 24.3642 21.3435 24.5829C21.545 24.805 21.7001 25.0654 21.7999 25.3487C21.8997 25.632 21.942 25.9326 21.9244 26.2327C21.9068 26.5327 21.8296 26.8262 21.6973 27.0958C21.5651 27.3654 21.3805 27.6056 21.1545 27.8022C20.9742 27.9745 20.7541 28.099 20.514 28.1643C20.694 28.1432 20.8665 28.119 21.0315 28.0934C22.398 27.8746 23.5455 27.1385 24.5955 26.3404L27.3075 24.2812C27.7913 23.9273 28.3742 23.7366 28.9725 23.7366C29.5708 23.7366 30.1537 23.9273 30.6375 24.2812C31.497 24.9344 31.761 26.01 31.2165 26.888C30.582 27.9108 29.688 29.2188 28.83 30.0183C27.9705 30.8179 26.691 31.5329 25.647 32.0398C24.489 32.6025 23.211 32.9253 21.9105 33.138C19.2735 33.5665 16.5255 33.5001 13.9155 32.96C12.4264 32.6521 10.9102 32.4949 9.39 32.4939ZM9.879 4.12972C9.3285 4.68337 9.123 5.4467 9.0465 6.63998C9.92579 6.62788 10.7657 6.2711 11.3873 5.6456C12.009 5.0201 12.3634 4.17527 12.375 3.29095C11.19 3.3694 10.4295 3.57607 9.879 4.12972ZM26.121 4.12972C25.5705 3.57607 24.8115 3.3694 23.625 3.29246C23.637 4.17677 23.9918 5.02144 24.6137 5.64666C25.2357 6.27188 26.0757 6.62827 26.955 6.63998C26.877 5.44821 26.6715 4.68337 26.121 4.12972ZM26.121 14.4302C25.5705 14.9839 24.8115 15.1906 23.625 15.2675C23.637 14.3832 23.9918 13.5385 24.6137 12.9133C25.2357 12.2881 26.0757 11.9317 26.955 11.92C26.877 13.1118 26.6715 13.8766 26.121 14.4302ZM9.879 14.4302C10.4295 14.9839 11.1885 15.1906 12.375 15.2675C12.363 14.3832 12.0082 13.5385 11.3863 12.9133C10.7643 12.2881 9.92429 11.9317 9.045 11.92C9.123 13.1118 9.3285 13.8766 9.879 14.4302Z" fill="#808080"/>
<path fill-rule="evenodd" clip-rule="evenodd" d="M9 8.90287C10.4918 8.90287 11.9226 8.30685 12.9775 7.24593C14.0324 6.18501 14.625 4.7461 14.625 3.24573H21.375C21.375 4.7461 21.9676 6.18501 23.0225 7.24593C24.0774 8.30685 25.5082 8.90287 27 8.90287V9.65716C25.5082 9.65716 24.0774 10.2532 23.0225 11.3141C21.9676 12.375 21.375 13.8139 21.375 15.3143H14.625C14.625 13.8139 14.0324 12.375 12.9775 11.3141C11.9226 10.2532 10.4918 9.65716 9 9.65716V8.90287ZM18 10.7886C18.3978 10.7886 18.7794 10.6296 19.0607 10.3467C19.342 10.0638 19.5 9.68011 19.5 9.28001C19.5 8.87992 19.342 8.4962 19.0607 8.21329C18.7794 7.93038 18.3978 7.77144 18 7.77144C17.6022 7.77144 17.2206 7.93038 16.9393 8.21329C16.658 8.4962 16.5 8.87992 16.5 9.28001C16.5 9.68011 16.658 10.0638 16.9393 10.3467C17.2206 10.6296 17.6022 10.7886 18 10.7886Z" fill="#808080"/>
</svg>
