<svg width="36" height="36" viewBox="0 0 36 36" fill="none" xmlns="http://www.w3.org/2000/svg">
<path d="M31.5 15V13.5L22.5 4.5H7.5C5.835 4.5 4.5 5.835 4.5 7.5V28.5C4.5 29.2956 4.81607 30.0587 5.37868 30.6213C5.94129 31.1839 6.70435 31.5 7.5 31.5H16.5V28.695L29.085 16.11C29.745 15.45 30.585 15.09 31.5 15ZM21 6.75L29.25 15H21V6.75ZM34.275 21.285L32.805 22.755L29.745 19.695L31.215 18.225C31.5 17.925 31.995 17.925 32.295 18.225L34.275 20.205C34.575 20.505 34.575 21 34.275 21.285ZM28.695 20.745L31.755 23.805L22.56 33H19.5V29.94L28.695 20.745Z" fill="#333333"/>
</svg>
