<svg width="21" height="21" viewBox="0 0 21 21" fill="none" xmlns="http://www.w3.org/2000/svg">
<path d="M14.0249 18.4004C14.0249 18.5662 13.959 18.7251 13.8418 18.8423C13.7246 18.9595 13.5656 19.0254 13.3999 19.0254H8.39985C8.23409 19.0254 8.07512 18.9595 7.95791 18.8423C7.8407 18.7251 7.77485 18.5662 7.77485 18.4004C7.77485 18.2346 7.8407 18.0757 7.95791 17.9584C8.07512 17.8412 8.23409 17.7754 8.39985 17.7754H13.3999C13.5656 17.7754 13.7246 17.8412 13.8418 17.9584C13.959 18.0757 14.0249 18.2346 14.0249 18.4004ZM18.2288 14.6457C17.7944 13.8988 17.1499 11.7855 17.1499 9.02539C17.1499 7.36779 16.4914 5.77808 15.3193 4.60597C14.1472 3.43387 12.5575 2.77539 10.8999 2.77539C9.24225 2.77539 7.65254 3.43387 6.48043 4.60597C5.30833 5.77808 4.64985 7.36779 4.64985 9.02539C4.64985 11.7863 4.00454 13.8988 3.57095 14.6457C3.46022 14.8356 3.40152 15.0513 3.40076 15.2711C3.40001 15.4909 3.45723 15.707 3.56665 15.8976C3.67607 16.0883 3.83382 16.2467 4.024 16.3569C4.21417 16.4671 4.43005 16.5252 4.64985 16.5254H17.1499C17.3696 16.5251 17.5854 16.4669 17.7754 16.3566C17.9655 16.2463 18.1231 16.0879 18.2325 15.8973C18.3418 15.7067 18.3989 15.4906 18.3982 15.2709C18.3974 15.0512 18.3387 14.8355 18.228 14.6457H18.2288Z" fill="white"/>
</svg>
