<svg width="36" height="36" viewBox="0 0 36 36" fill="none" xmlns="http://www.w3.org/2000/svg">
<path d="M11.8125 18C13.4535 18 15.0273 17.3481 16.1877 16.1877C17.3481 15.0273 18 13.4535 18 11.8125C18 10.1715 17.3481 8.59766 16.1877 7.43728C15.0273 6.2769 13.4535 5.625 11.8125 5.625C10.1715 5.625 8.59766 6.2769 7.43728 7.43728C6.2769 8.59766 5.625 10.1715 5.625 11.8125C5.625 13.4535 6.2769 15.0273 7.43728 16.1877C8.59766 17.3481 10.1715 18 11.8125 18ZM25.875 18C27.0685 18 28.2131 17.5259 29.057 16.682C29.9009 15.8381 30.375 14.6935 30.375 13.5C30.375 12.3065 29.9009 11.1619 29.057 10.318C28.2131 9.47411 27.0685 9 25.875 9C24.6815 9 23.5369 9.47411 22.693 10.318C21.8491 11.1619 21.375 12.3065 21.375 13.5C21.375 14.6935 21.8491 15.8381 22.693 16.682C23.5369 17.5259 24.6815 18 25.875 18ZM5.625 20.25C4.72989 20.25 3.87145 20.6056 3.23851 21.2385C2.60558 21.8714 2.25 22.7299 2.25 23.625V23.7937C2.25 23.7937 2.25 30.375 11.8125 30.375C21.375 30.375 21.375 23.7937 21.375 23.7937V23.625C21.375 22.7299 21.0194 21.8714 20.3865 21.2385C19.7536 20.6056 18.8951 20.25 18 20.25H5.625ZM25.875 28.125C24.237 28.125 22.941 27.9023 21.9139 27.5479C22.3999 26.7604 22.6789 26.001 22.8364 25.3879C22.9512 24.9473 23.0239 24.4967 23.0535 24.0424C23.0557 23.9974 23.058 23.9569 23.058 23.922L23.0591 23.8748V23.625C23.0611 22.3796 22.6023 21.1774 21.771 20.25H31.0421C31.3977 20.2499 31.7498 20.3198 32.0783 20.4557C32.4068 20.5917 32.7053 20.791 32.9568 21.0424C33.2083 21.2938 33.4078 21.5922 33.5439 21.9207C33.68 22.2491 33.75 22.6012 33.75 22.9568C33.75 22.9568 33.75 28.125 25.875 28.125Z" fill="#333333"/>
</svg>
