<svg width="36" height="36" viewBox="0 0 36 36" fill="none" xmlns="http://www.w3.org/2000/svg">
<path fill-rule="evenodd" clip-rule="evenodd" d="M11.1068 26.0355C16.2405 25.2855 19.7753 25.35 24.9158 26.0618C25.288 26.1157 25.6282 26.3026 25.8734 26.5878C26.1187 26.873 26.2524 27.2373 26.25 27.6135C26.25 27.9735 26.1262 28.323 25.9027 28.596C25.5132 29.072 25.1141 29.5401 24.7058 30H26.6865C26.811 29.8515 26.9362 29.7 27.063 29.5463C27.5079 29.0007 27.7506 28.3182 27.75 27.6143C27.75 26.0955 26.6415 24.7868 25.1213 24.5768C19.8592 23.8485 16.1813 23.7788 10.89 24.552C9.354 24.7763 8.25 26.1053 8.25 27.6345C8.25 28.3133 8.47125 28.9845 8.8905 29.5282C9.01425 29.6888 9.1365 29.8463 9.258 30.0008H11.1907C10.8108 29.5459 10.4402 29.0833 10.0793 28.6133C9.86472 28.3319 9.74899 27.9876 9.75 27.6338C9.75 26.826 10.3305 26.1488 11.1068 26.0355ZM18 18.75C18.5909 18.75 19.1761 18.6336 19.7221 18.4075C20.268 18.1813 20.7641 17.8498 21.182 17.432C21.5998 17.0141 21.9313 16.518 22.1575 15.9721C22.3836 15.4261 22.5 14.8409 22.5 14.25C22.5 13.6591 22.3836 13.0739 22.1575 12.5279C21.9313 11.982 21.5998 11.4859 21.182 11.068C20.7641 10.6502 20.268 10.3187 19.7221 10.0925C19.1761 9.8664 18.5909 9.75 18 9.75C16.8065 9.75 15.6619 10.2241 14.818 11.068C13.9741 11.9119 13.5 13.0565 13.5 14.25C13.5 15.4435 13.9741 16.5881 14.818 17.432C15.6619 18.2759 16.8065 18.75 18 18.75ZM18 20.25C19.5913 20.25 21.1174 19.6179 22.2426 18.4926C23.3679 17.3674 24 15.8413 24 14.25C24 12.6587 23.3679 11.1326 22.2426 10.0074C21.1174 8.88214 19.5913 8.25 18 8.25C16.4087 8.25 14.8826 8.88214 13.7574 10.0074C12.6321 11.1326 12 12.6587 12 14.25C12 15.8413 12.6321 17.3674 13.7574 18.4926C14.8826 19.6179 16.4087 20.25 18 20.25Z" fill="#808080"/>
<path fill-rule="evenodd" clip-rule="evenodd" d="M18 31.5C25.4557 31.5 31.5 25.4557 31.5 18C31.5 10.5443 25.4557 4.5 18 4.5C10.5443 4.5 4.5 10.5443 4.5 18C4.5 25.4557 10.5443 31.5 18 31.5ZM18 33C26.2845 33 33 26.2845 33 18C33 9.7155 26.2845 3 18 3C9.7155 3 3 9.7155 3 18C3 26.2845 9.7155 33 18 33Z" fill="#808080"/>
</svg>
