<svg width="36" height="36" viewBox="0 0 36 36" fill="none" xmlns="http://www.w3.org/2000/svg">
<g clip-path="url(#clip0_280_165)">
<path d="M9 9C9 7.80653 9.47411 6.66193 10.318 5.81802C11.1619 4.97411 12.3065 4.5 13.5 4.5H22.5C23.6935 4.5 24.8381 4.97411 25.682 5.81802C26.5259 6.66193 27 7.80653 27 9V27C27 28.1935 26.5259 29.3381 25.682 30.182C24.8381 31.0259 23.6935 31.5 22.5 31.5H13.5C12.3065 31.5 11.1619 31.0259 10.318 30.182C9.47411 29.3381 9 28.1935 9 27V9ZM20.25 24.75C20.25 24.1533 20.0129 23.581 19.591 23.159C19.169 22.7371 18.5967 22.5 18 22.5C17.4033 22.5 16.831 22.7371 16.409 23.159C15.9871 23.581 15.75 24.1533 15.75 24.75C15.75 25.3467 15.9871 25.919 16.409 26.341C16.831 26.7629 17.4033 27 18 27C18.5967 27 19.169 26.7629 19.591 26.341C20.0129 25.919 20.25 25.3467 20.25 24.75ZM4.06575 10.6515C4.20539 10.3877 4.23453 10.0793 4.14676 9.79407C4.05899 9.50883 3.86151 9.27014 3.59775 9.1305C3.33399 8.99086 3.02557 8.96172 2.74032 9.04949C2.45508 9.13726 2.21639 9.33474 2.07675 9.5985C0.708717 12.1874 -0.00431215 15.0719 -1.08428e-07 18C-1.08428e-07 21.0308 0.7515 23.8905 2.07675 26.4015C2.14589 26.5321 2.24008 26.6478 2.35393 26.742C2.46779 26.8362 2.59909 26.9071 2.74032 26.9505C2.88156 26.994 3.02998 27.0092 3.17709 26.9953C3.32421 26.9814 3.46715 26.9386 3.59775 26.8695C3.72835 26.8004 3.84405 26.7062 3.93825 26.5923C4.03245 26.4785 4.1033 26.3472 4.14676 26.2059C4.19022 26.0647 4.20543 25.9163 4.19153 25.7692C4.17763 25.622 4.13489 25.4791 4.06575 25.3485C2.8693 23.0841 2.24588 20.561 2.25 18C2.25 15.345 2.907 12.843 4.06575 10.6515ZM33.9232 9.5985C33.7836 9.33474 33.5449 9.13726 33.2597 9.04949C32.9744 8.96172 32.666 8.99086 32.4022 9.1305C32.1385 9.27014 31.941 9.50883 31.8532 9.79407C31.7655 10.0793 31.7946 10.3877 31.9342 10.6515C33.093 12.843 33.75 15.3427 33.75 18C33.75 20.655 33.093 23.157 31.9342 25.3485C31.7946 25.6123 31.7655 25.9207 31.8532 26.2059C31.941 26.4912 32.1385 26.7299 32.4022 26.8695C32.666 27.0091 32.9744 27.0383 33.2597 26.9505C33.5449 26.8627 33.7836 26.6653 33.9232 26.4015C35.2913 23.8126 36.0043 20.9281 36 18C36.0043 15.0719 35.2913 12.1874 33.9232 9.5985ZM7.515 13.9095C7.57779 13.7704 7.61163 13.6201 7.61448 13.4675C7.61732 13.315 7.58911 13.1635 7.53156 13.0222C7.474 12.8809 7.38831 12.7527 7.27969 12.6456C7.17106 12.5385 7.04178 12.4545 6.89971 12.3989C6.75763 12.3433 6.60573 12.3172 6.45324 12.3221C6.30075 12.3271 6.15085 12.363 6.01268 12.4277C5.8745 12.4924 5.75092 12.5845 5.64946 12.6984C5.54801 12.8124 5.47079 12.9458 5.4225 13.0905C4.81155 14.6552 4.49867 16.3203 4.5 18C4.5 19.7303 4.82625 21.3862 5.4225 22.9095C5.47079 23.0542 5.54801 23.1876 5.64946 23.3016C5.75092 23.4155 5.8745 23.5076 6.01268 23.5723C6.15085 23.637 6.30075 23.6729 6.45324 23.6779C6.60573 23.6828 6.75763 23.6567 6.89971 23.6011C7.04178 23.5455 7.17106 23.4615 7.27969 23.3544C7.38831 23.2473 7.474 23.1191 7.53156 22.9778C7.58911 22.8365 7.61732 22.685 7.61448 22.5325C7.61163 22.3799 7.57779 22.2296 7.515 22.0905C7.00713 20.7866 6.74766 19.3993 6.75 18C6.75 16.5555 7.02 15.1763 7.515 13.9095ZM30.5775 13.0905C30.4588 12.8276 30.2437 12.6204 29.9766 12.5116C29.7094 12.4028 29.4107 12.4007 29.1421 12.5058C28.8735 12.611 28.6556 12.8152 28.5333 13.0765C28.411 13.3377 28.3937 13.6359 28.485 13.9095C28.98 15.1763 29.25 16.5555 29.25 18C29.25 19.4445 28.98 20.8237 28.485 22.0905C28.3937 22.3641 28.411 22.6623 28.5333 22.9235C28.6556 23.1848 28.8735 23.389 29.1421 23.4942C29.4107 23.5993 29.7094 23.5972 29.9766 23.4884C30.2437 23.3796 30.4588 23.1724 30.5775 22.9095C31.176 21.3862 31.5 19.7303 31.5 18C31.5 16.2697 31.1737 14.6137 30.5775 13.0905Z" fill="#333333"/>
</g>
<defs>
<clipPath id="clip0_280_165">
<rect width="36" height="36" fill="white"/>
</clipPath>
</defs>
</svg>
