<svg width="34" height="34" viewBox="0 0 34 34" fill="none" xmlns="http://www.w3.org/2000/svg">
<path d="M25.5 18.4139H18.4167V25.4972C18.4167 25.873 18.2674 26.2333 18.0017 26.499C17.7361 26.7646 17.3757 26.9139 17 26.9139C16.6243 26.9139 16.2639 26.7646 15.9983 26.499C15.7326 26.2333 15.5833 25.873 15.5833 25.4972V18.4139H8.5C8.12428 18.4139 7.76394 18.2646 7.49826 17.999C7.23259 17.7333 7.08333 17.373 7.08333 16.9972C7.08333 16.6215 7.23259 16.2612 7.49826 15.9955C7.76394 15.7298 8.12428 15.5806 8.5 15.5806H15.5833V8.49723C15.5833 8.12151 15.7326 7.76117 15.9983 7.4955C16.2639 7.22982 16.6243 7.08057 17 7.08057C17.3757 7.08057 17.7361 7.22982 18.0017 7.4955C18.2674 7.76117 18.4167 8.12151 18.4167 8.49723V15.5806H25.5C25.8757 15.5806 26.2361 15.7298 26.5017 15.9955C26.7674 16.2612 26.9167 16.6215 26.9167 16.9972C26.9167 17.373 26.7674 17.7333 26.5017 17.999C26.2361 18.2646 25.8757 18.4139 25.5 18.4139Z" fill="#8E60CF"/>
</svg>
