<svg width="36" height="36" viewBox="0 0 36 36" fill="none" xmlns="http://www.w3.org/2000/svg">
<path d="M18 18C16.35 18 14.9375 17.4125 13.7625 16.2375C12.5875 15.0625 12 13.65 12 12C12 10.35 12.5875 8.9375 13.7625 7.7625C14.9375 6.5875 16.35 6 18 6C19.65 6 21.0625 6.5875 22.2375 7.7625C23.4125 8.9375 24 10.35 24 12C24 13.65 23.4125 15.0625 22.2375 16.2375C21.0625 17.4125 19.65 18 18 18ZM9 30C8.175 30 7.4685 29.706 6.8805 29.118C6.2925 28.53 5.999 27.824 6 27V25.8C6 24.95 6.219 24.1685 6.657 23.4555C7.095 22.7425 7.676 22.199 8.4 21.825C9.95 21.05 11.525 20.4685 13.125 20.0805C14.725 19.6925 16.35 19.499 18 19.5C19.65 19.5 21.275 19.694 22.875 20.082C24.475 20.47 26.05 21.051 27.6 21.825C28.325 22.2 28.9065 22.744 29.3445 23.457C29.7825 24.17 30.001 24.951 30 25.8V27C30 27.825 29.706 28.5315 29.118 29.1195C28.53 29.7075 27.824 30.001 27 30H9Z" fill="#808080"/>
</svg>
