<svg width="19" height="19" viewBox="0 0 19 19" fill="none" xmlns="http://www.w3.org/2000/svg">
<path d="M17.284 16.0248C17.1374 16.2002 16.9405 16.3263 16.72 16.3862C16.4994 16.4461 16.2658 16.4367 16.0507 16.3595L10.4292 14.4358C10.3736 14.4168 10.3253 14.3809 10.2911 14.3331C10.2569 14.2853 10.2386 14.228 10.2387 14.1693V9.11312C10.2388 9.03601 10.2231 8.95968 10.1926 8.88889C10.162 8.8181 10.1172 8.75434 10.061 8.70159C10.0047 8.64884 9.93821 8.60822 9.86561 8.58225C9.793 8.55627 9.71583 8.54551 9.63889 8.55062C9.49424 8.56337 9.35976 8.6303 9.26236 8.73799C9.16497 8.84569 9.11185 8.98621 9.11365 9.1314V14.1637C9.11376 14.2223 9.09551 14.2796 9.06147 14.3274C9.02743 14.3751 8.97929 14.4111 8.92381 14.4301L3.29881 16.3595C3.08318 16.4351 2.84966 16.4432 2.62932 16.3828C2.40897 16.3224 2.21223 16.1963 2.06529 16.0214C1.91834 15.8464 1.82816 15.6308 1.80672 15.4034C1.78529 15.1759 1.83362 14.9473 1.94529 14.748L8.69178 2.93476C8.78964 2.76078 8.93204 2.61598 9.10435 2.51521C9.27666 2.41444 9.47267 2.36133 9.67229 2.36133C9.8719 2.36133 10.0679 2.41444 10.2402 2.51521C10.4125 2.61598 10.5549 2.76078 10.6528 2.93476L17.4035 14.7444C17.5179 14.9442 17.5678 15.1744 17.5464 15.4036C17.525 15.6327 17.4334 15.8497 17.284 16.0248Z" fill="#808080"/>
</svg>
