<svg width="36" height="36" viewBox="0 0 36 36" fill="none" xmlns="http://www.w3.org/2000/svg">
<path d="M21.375 32.1C20.8 32.675 20.0875 32.9625 19.2375 32.9625C18.3875 32.9625 17.675 32.675 17.1 32.1L3.90001 18.9C3.62501 18.625 3.40601 18.3 3.24301 17.925C3.08001 17.55 2.99901 17.15 3.00001 16.725V6C3.00001 5.175 3.29401 4.4685 3.88201 3.8805C4.47001 3.2925 5.17601 2.999 6.00001 3H16.725C17.15 3 17.55 3.0815 17.925 3.2445C18.3 3.4075 18.625 3.626 18.9 3.9L32.1 17.1375C32.675 17.7125 32.9625 18.419 32.9625 19.257C32.9625 20.095 32.675 20.801 32.1 21.375L21.375 32.1ZM9.75001 12C10.375 12 10.9065 11.781 11.3445 11.343C11.7825 10.905 12.001 10.374 12 9.75C12 9.125 11.781 8.5935 11.343 8.1555C10.905 7.7175 10.374 7.499 9.75001 7.5C9.12501 7.5 8.59351 7.719 8.15551 8.157C7.71751 8.595 7.49901 9.126 7.50001 9.75C7.50001 10.375 7.71901 10.9065 8.15701 11.3445C8.59501 11.7825 9.12601 12.001 9.75001 12Z" fill="#333333"/>
</svg>
