<svg width="80" height="80" viewBox="0 0 80 80" fill="none" xmlns="http://www.w3.org/2000/svg">
<path d="M66.5498 28.4037C66.6265 27.8237 66.6665 27.2437 66.6665 26.667C66.6665 18.737 59.5232 12.3737 51.5965 13.4503C49.2865 9.34032 44.8865 6.66699 39.9998 6.66699C35.1132 6.66699 30.7132 9.34032 28.4032 13.4503C20.4598 12.3737 13.3332 18.737 13.3332 26.667C13.3332 27.2437 13.3732 27.8237 13.4498 28.4037C9.33984 30.717 6.6665 35.117 6.6665 40.0003C6.6665 44.8837 9.33984 49.2837 13.4498 51.597C13.3729 52.1727 13.334 52.7528 13.3332 53.3337C13.3332 61.2637 20.4598 67.6103 28.4032 66.5503C30.7132 70.6603 35.1132 73.3337 39.9998 73.3337C44.8865 73.3337 49.2865 70.6603 51.5965 66.5503C59.5232 67.6103 66.6665 61.2637 66.6665 53.3337C66.6665 52.757 66.6265 52.177 66.5498 51.597C70.6598 49.2837 73.3332 44.8837 73.3332 40.0003C73.3332 35.117 70.6598 30.717 66.5498 28.4037ZM36.5165 54.7203L24.2932 42.3403L29.0398 37.6603L36.5632 45.2803L50.9865 30.967L55.6798 35.7003L36.5165 54.7203Z" fill="#CB29BE"/>
</svg>
