<svg width="39" height="44" viewBox="0 0 39 44" fill="none" xmlns="http://www.w3.org/2000/svg">
<g clip-path="url(#clip0_136_2988)">
<path d="M28.5136 16.1389C31.2849 18.119 34.6801 19.2841 38.347 19.2841V12.2317C37.6529 12.2318 36.9608 12.1594 36.2819 12.0156V17.5669C32.6153 17.5669 29.2206 16.402 26.4486 14.422V28.814C26.4486 36.0138 20.609 41.8497 13.4062 41.8497C10.7186 41.8497 8.22057 41.0377 6.14551 39.6449C8.51391 42.0653 11.8168 43.5668 15.4707 43.5668C22.6742 43.5668 28.5138 37.7308 28.5138 30.5308V16.1389H28.5136ZM31.0612 9.02391C29.6448 7.47737 28.7148 5.47873 28.5136 3.26909V2.36206H26.5566C27.0492 5.1704 28.7296 7.56966 31.0612 9.02391ZM10.7013 34.1202C9.90998 33.0832 9.48223 31.8145 9.48415 30.5101C9.48415 27.2174 12.1551 24.5475 15.4504 24.5475C16.0644 24.5471 16.6748 24.6414 17.2602 24.8268V17.6167C16.5761 17.5231 15.8859 17.4832 15.1959 17.4979V23.1098C14.6103 22.9242 13.9996 22.83 13.3853 22.8306C10.0901 22.8306 7.41933 25.5002 7.41933 28.7934C7.41933 31.1221 8.75428 33.1381 10.7013 34.1202Z" fill="#FF004F"/>
<path d="M26.448 14.4219C29.2201 16.4018 32.6145 17.5667 36.2812 17.5667V12.0155C34.2345 11.5797 32.4227 10.5108 31.0604 9.02391C28.7287 7.56952 27.0486 5.17025 26.556 2.36206H21.4157V30.5305C21.404 33.8144 18.7377 36.4733 15.4495 36.4733C13.512 36.4733 11.7905 35.5502 10.7004 34.12C8.75366 33.1381 7.41856 31.1219 7.41856 28.7936C7.41856 25.5006 10.0894 22.8307 13.3845 22.8307C14.0159 22.8307 14.6244 22.929 15.1952 23.11V17.498C8.11875 17.6442 2.42773 23.4232 2.42773 30.5306C2.42773 34.0786 3.84489 37.295 6.14503 39.6452C8.22009 41.0377 10.718 41.85 13.4057 41.85C20.6087 41.85 26.4481 36.0136 26.4481 28.814V14.422L26.448 14.4219Z" fill="black"/>
<path d="M36.2817 12.0153V10.5146C34.4361 10.5174 32.6269 10.0008 31.0609 9.02387C32.4471 10.5406 34.2723 11.5865 36.2817 12.0156V12.0153ZM26.5563 2.36187C26.5094 2.09354 26.4734 1.82342 26.4483 1.55217V0.645142H19.3508V28.8139C19.3396 32.0974 16.6732 34.7564 13.3849 34.7564C12.4527 34.7578 11.5332 34.5399 10.7007 34.1203C11.7909 35.5502 13.5123 36.4731 15.4499 36.4731C18.7379 36.4731 21.4045 33.8145 21.4161 30.5306V2.36202H26.5563V2.36187ZM15.196 17.4979V15.9C14.6029 15.8189 14.005 15.7784 13.4064 15.7786C6.20267 15.7786 0.363281 21.6149 0.363281 28.8139C0.363281 33.3274 2.65823 37.305 6.1457 39.6448C3.84555 37.2948 2.4284 34.0783 2.4284 30.5304C2.4284 23.4232 8.11927 17.644 15.196 17.4979Z" fill="#00F2EA"/>
</g>
<defs>
<clipPath id="clip0_136_2988">
<rect width="37.9846" height="43.0295" fill="white" transform="translate(0.363281 0.645142)"/>
</clipPath>
</defs>
</svg>
