<svg width="22" height="22" viewBox="0 0 22 22" fill="none" xmlns="http://www.w3.org/2000/svg">
<path d="M19.2251 6.15811C18.7994 6.726 18.2848 7.22138 17.7012 7.6251C17.7012 7.77345 17.7012 7.92179 17.7012 8.07839C17.7058 10.7723 16.6298 13.3555 14.7142 15.2488C12.7986 17.1421 10.2037 18.1871 7.51126 18.1495C5.95471 18.1547 4.41808 17.7993 3.02177 17.1111C2.94648 17.0782 2.89792 17.0037 2.8982 16.9215V16.8309C2.8982 16.7125 2.9941 16.6166 3.11238 16.6166C4.64244 16.5661 6.1179 16.0356 7.33003 15.1002C5.94512 15.0722 4.69906 14.2518 4.1256 12.9903C4.09664 12.9215 4.10566 12.8423 4.14941 12.7818C4.19315 12.7212 4.2653 12.6878 4.33978 12.6937C4.76069 12.7359 5.1858 12.6968 5.5919 12.5783C4.06308 12.2609 2.91433 10.9917 2.74992 9.43821C2.74409 9.36369 2.77748 9.29155 2.83805 9.24773C2.89862 9.20401 2.97761 9.19493 3.04648 9.22399C3.45675 9.40503 3.89964 9.50037 4.34802 9.50412C3.00841 8.62491 2.42978 6.95254 2.93939 5.43286C2.992 5.28519 3.11838 5.1761 3.27209 5.14568C3.4258 5.11526 3.58418 5.168 3.68901 5.28451C5.49674 7.20847 7.98059 8.35495 10.6168 8.48221C10.5493 8.21277 10.5161 7.93585 10.518 7.65807C10.5426 6.20148 11.4439 4.90393 12.7998 4.37287C14.1557 3.84182 15.6979 4.18235 16.7045 5.23506C17.3905 5.10435 18.0538 4.8739 18.6732 4.55102C18.7186 4.52269 18.7761 4.52269 18.8215 4.55102C18.8498 4.59641 18.8498 4.65397 18.8215 4.69936C18.5215 5.38638 18.0147 5.9626 17.3717 6.34766C17.9347 6.28237 18.4878 6.14955 19.0192 5.95208C19.064 5.92163 19.1227 5.92163 19.1675 5.95208C19.205 5.96922 19.233 6.00201 19.2441 6.04171C19.2552 6.08141 19.2482 6.12399 19.2251 6.15811Z" fill="white"/>
</svg>
