<svg width="18" height="18" viewBox="0 0 18 18" fill="none" xmlns="http://www.w3.org/2000/svg">
<path d="M15 3C15.3978 3 15.7794 3.15804 16.0607 3.43934C16.342 3.72064 16.5 4.10218 16.5 4.5V12C16.5 12.8325 15.8325 13.5 15 13.5H18V15H0V13.5H3C2.60218 13.5 2.22064 13.342 1.93934 13.0607C1.65804 12.7794 1.5 12.3978 1.5 12V4.5C1.5 3.6675 2.1675 3 3 3H15ZM15 4.5H3V12H15V4.5ZM9 9C10.6575 9 12 9.675 12 10.5V11.25H6V10.5C6 9.675 7.3425 9 9 9ZM9 5.25C9.39782 5.25 9.77936 5.40804 10.0607 5.68934C10.342 5.97064 10.5 6.35218 10.5 6.75C10.5 7.14782 10.342 7.52936 10.0607 7.81066C9.77936 8.09196 9.39782 8.25 9 8.25C8.1675 8.25 7.5 7.5825 7.5 6.75C7.5 5.9175 8.175 5.25 9 5.25Z" fill="#808080"/>
</svg>
