<svg width="24" height="24" viewBox="0 0 24 24" fill="none" xmlns="http://www.w3.org/2000/svg">
<path d="M19.1999 7.20096H4.1999V6.60096L17.3999 5.54496V6.60096H19.1999V4.80096C19.1999 3.48096 18.1307 2.55456 16.8251 2.74056L4.7759 4.46136C3.4691 4.64856 2.3999 5.88096 2.3999 7.20096V19.201C2.3999 19.8375 2.65276 20.4479 3.10285 20.898C3.55293 21.3481 4.16338 21.601 4.7999 21.601H19.1999C19.8364 21.601 20.4469 21.3481 20.897 20.898C21.347 20.4479 21.5999 19.8375 21.5999 19.201V9.60096C21.5999 8.96444 21.347 8.35399 20.897 7.9039C20.4469 7.45382 19.8364 7.20096 19.1999 7.20096ZM17.3999 15.6082C17.1634 15.6081 16.9293 15.5614 16.7109 15.4709C16.4925 15.3803 16.294 15.2476 16.1269 15.0804C15.9597 14.9131 15.8272 14.7146 15.7367 14.4961C15.6463 14.2776 15.5998 14.0434 15.5999 13.807C15.6 13.5705 15.6466 13.3364 15.7372 13.1179C15.8278 12.8995 15.9605 12.7011 16.1277 12.5339C16.295 12.3668 16.4935 12.2342 16.712 12.1438C16.9305 12.0534 17.1646 12.0069 17.4011 12.007C17.8787 12.0071 18.3366 12.197 18.6741 12.5348C19.0117 12.8726 19.2013 13.3306 19.2011 13.8082C19.2009 14.2857 19.0111 14.7436 18.6733 15.0812C18.3355 15.4188 17.8775 15.6083 17.3999 15.6082Z" fill="#CB29BE"/>
</svg>
