<svg width="43" height="44" viewBox="0 0 43 44" fill="none" xmlns="http://www.w3.org/2000/svg">
<g clip-path="url(#clip0_136_2995)">
<path d="M1.16592 21.9024C1.16492 25.5177 2.10957 29.0478 3.9058 32.1593L0.994141 42.7902L11.8736 39.9376C14.8827 41.5757 18.2542 42.4341 21.6803 42.4343H21.6893C32.9995 42.4343 42.2063 33.2308 42.2112 21.9186C42.2134 16.437 40.0806 11.2825 36.2056 7.40448C32.3313 3.52683 27.1786 1.3902 21.6885 1.3877C10.3769 1.3877 1.17076 10.5907 1.16609 21.9024" fill="url(#paint0_linear_136_2995)"/>
<path d="M0.433338 21.8957C0.432171 25.6411 1.41067 29.2974 3.27095 32.5203L0.254883 43.5323L11.5244 40.5775C14.6296 42.2705 18.1256 43.1631 21.6831 43.1644H21.6922C33.4082 43.1644 42.9458 33.6299 42.9508 21.9127C42.9528 16.2341 40.7433 10.8943 36.7299 6.87741C32.7159 2.86099 27.3789 0.647477 21.6922 0.645142C9.9742 0.645142 0.438008 10.1783 0.433338 21.8957ZM7.1446 31.9652L6.72381 31.2973C4.95493 28.4847 4.02129 25.2345 4.02263 21.897C4.02646 12.1579 11.9526 4.23426 21.6989 4.23426C26.4188 4.23627 30.8545 6.07619 34.1908 9.41448C37.5269 12.7531 39.3627 17.1911 39.3615 21.9114C39.3572 31.6505 31.4309 39.5751 21.6922 39.5751H21.6852C18.5142 39.5735 15.4043 38.7219 12.6921 37.1126L12.0466 36.7298L5.35904 38.4832L7.1446 31.9651V31.9652Z" fill="url(#paint1_linear_136_2995)"/>
<path d="M16.3794 13.0116C15.9814 12.1272 15.5627 12.1093 15.1842 12.0938C14.8744 12.0805 14.5201 12.0815 14.1662 12.0815C13.812 12.0815 13.2364 12.2147 12.7499 12.7459C12.2629 13.2776 10.8906 14.5625 10.8906 17.1758C10.8906 19.7892 12.7941 22.3148 13.0594 22.6695C13.3251 23.0236 16.7341 28.5581 22.1332 30.6872C26.6202 32.4566 27.5333 32.1047 28.5072 32.0159C29.4812 31.9275 31.65 30.7314 32.0925 29.4911C32.5353 28.2509 32.5353 27.1878 32.4025 26.9657C32.2698 26.7443 31.9155 26.6114 31.3843 26.3459C30.853 26.0802 28.2415 24.7952 27.7547 24.6179C27.2677 24.4408 26.9136 24.3524 26.5593 24.8842C26.2051 25.4153 25.1879 26.6114 24.8779 26.9657C24.5682 27.3207 24.2581 27.3649 23.7271 27.0992C23.1955 26.8327 21.4849 26.2725 19.4553 24.4631C17.8762 23.0551 16.8102 21.3165 16.5003 20.7846C16.1904 20.2536 16.4671 19.9657 16.7335 19.701C16.9721 19.463 17.2648 19.0808 17.5307 18.7707C17.7955 18.4605 17.8839 18.2392 18.061 17.8849C18.2383 17.5304 18.1496 17.2202 18.017 16.9545C17.8839 16.6888 16.8517 14.0618 16.3794 13.0116Z" fill="white"/>
</g>
<defs>
<linearGradient id="paint0_linear_136_2995" x1="2061.85" y1="4141.64" x2="2061.85" y2="1.3877" gradientUnits="userSpaceOnUse">
<stop stop-color="#1FAF38"/>
<stop offset="1" stop-color="#60D669"/>
</linearGradient>
<linearGradient id="paint1_linear_136_2995" x1="2135.05" y1="4289.36" x2="2135.05" y2="0.645142" gradientUnits="userSpaceOnUse">
<stop stop-color="#F9F9F9"/>
<stop offset="1" stop-color="white"/>
</linearGradient>
<clipPath id="clip0_136_2995">
<rect width="42.6959" height="43.0295" fill="white" transform="translate(0.254883 0.645142)"/>
</clipPath>
</defs>
</svg>
