<svg width="50" height="44" viewBox="0 0 50 44" fill="none" xmlns="http://www.w3.org/2000/svg">
<path d="M48.8957 6.71148C48.6089 5.41426 48.0495 4.23163 47.2732 3.28134C46.4968 2.33106 45.5306 1.64628 44.4707 1.2952C40.5907 0 24.9746 0 24.9746 0C24.9746 0 9.35785 0.039205 5.47777 1.33441C4.41791 1.68551 3.45168 2.37032 2.67532 3.32065C1.89895 4.27098 1.33953 5.45366 1.05277 6.75093C-0.120861 15.1891 -0.576134 28.047 1.085 36.1476C1.37179 37.4448 1.93122 38.6274 2.70759 39.5777C3.48395 40.528 4.45016 41.2128 5.51 41.5639C9.39008 42.8591 25.0065 42.8591 25.0065 42.8591C25.0065 42.8591 40.6227 42.8591 44.5026 41.5639C45.5625 41.2128 46.5287 40.5281 47.3051 39.5778C48.0815 38.6275 48.641 37.4448 48.9278 36.1476C50.1657 27.6975 50.5471 14.8475 48.8957 6.71148Z" fill="#FF0000"/>
<path d="M20.0039 30.6135L32.9586 21.4294L20.0039 12.2454V30.6135Z" fill="white"/>
</svg>
